Rango (2011)(DivX)EXTENDED.DVDRip.XviD-EXViD (NL Subs) TBS 

 Subtitles: EN, FR, NL, FL (Flemish) 


Director: Gore Verbinski

Genres: Animation | Adventure | Comedy | Family | Western

Plot:
Rango is an ordinary chameleon who accidentally winds up in the town of Dirt, a lawless outpost
in the Wild West in desperate need of a new sheriff.

Cast:
Johnny Depp ... Rango / Lars (voice) 
Isla Fisher ... Beans (voice) 
Abigail Breslin ... Priscilla (voice) 
Ned Beatty ... Mayor (voice) 
Alfred Molina ... Roadkill (voice) 
Bill Nighy ... Rattlesnake Jake (voice) 
Stephen Root ... Doc / Merrimack / Mr. Snuggles (voice) 
Harry Dean Stanton ... Balthazar (voice) 
Timothy Olyphant ... Spirit of the West (voice) 
Ray Winstone ... Bad Bill (voice) 
Ian Abercrombie ... Ambrose (voice) 
Gil Birmingham ... Wounded Bird (voice) 
James Ward Byrkit ... Waffles / GordyPapa / Joad / Cousin Murt / Curlie Knife Attacker / Rodent Kid (voice) 
Claudia Black ... Angelique (voice) 
Blake Clark ... Buford (voice)

Stats:
Format : AVI
Format/Info : Audio Video Interleave
File size : 1.37 GiB
Duration : 1h 47mn
Overall bit rate : 1 825 Kbps
Writing application : VirtualDubMod 1.5.10.2 (build 2540/release)
Writing library : VirtualDubMod build 2540/release

Video
ID : 0
Format : MPEG-4 Visual
Format profile : Advanced Simple@L5
Format settings, BVOP : Yes
Format settings, QPel : No
Format settings, GMC : No warppoints
Format settings, Matrix : Default (H.263)
Muxing mode : Packed bitstream
Codec ID : XVID
Codec ID/Hint : XviD
Duration : 1h 47mn
Bit rate : 1 367 Kbps
Width : 640 pixels
Height : 272 pixels
Display aspect ratio : 2.35:1
Frame rate : 25.000 fps
Color space : YUV
Chroma subsampling : 4:2:0
Bit depth : 8 bits
Scan type : Progressive
Bits/(Pixel*Frame) : 0.314
Stream size : 1.02 GiB (75%)
Writing library : XviD 62

Audio
ID : 1
Format : AC-3
Format/Info : Audio Coding 3
Mode extension : CM (complete main)
Codec ID : 2000
Duration : 1h 47mn
Bit rate mode : Constant
Bit rate : 448 Kbps
Channel(s) : 6 channels
Channel positions : Front: L C R, Side: L R, LFE
Sampling rate : 48.0 KHz
Bit depth : 16 bits
Stream size : 344 MiB (25%)
Alignment : Split accross interleaves
Interleave, duration : 40 ms (1.00 video frame)
Interleave, preload duration : 500 ms


Release notes:
About 5 minutes longer than the theatrical cut featuring a "never seen before alternate ending"
and other scenes. 

enjoy! 

Postinformatie
Category : Video 
Format : DivX 
Source : Retail  
Subtitle : EN, FR, NL, FL (Flemish)   
Genre : Animation  
Language : English audio  
  
http://www.moviemeter.nl/film/58234 
http://www.imdb.com/title/tt1192628